<svg width="40" height="40" viewBox="0 0 40 40" fill="none" xmlns="http://www.w3.org/2000/svg">
<path d="M28.1167 5.18357C25.5667 4.87524 23.2 5.66691 21.4417 7.43357L20.1 8.92524L18.575 7.24191L18.525 7.18357C14.7667 3.42524 8.975 4.70857 5.55833 8.12524C3.83333 9.85024 2.875 12.1586 2.875 14.6086C2.875 17.0419 3.80833 19.3252 5.50833 21.0502L19.725 34.8669C19.8833 35.0169 20.0917 35.1002 20.3083 35.1002C20.5333 35.1002 20.7417 35.0169 20.9 34.8586L34.4333 21.3086C36.1667 19.5752 37.1167 17.2752 37.1167 14.8252C37.1167 12.3752 36.1667 10.0752 34.4333 8.34191C32.7083 6.61691 30.4083 5.46691 28.1167 5.18357ZM33.2583 20.1252L20.3083 33.1002L6.73333 19.9086C3.80833 16.9836 3.80833 12.2252 6.73333 9.30024C8.4 7.63357 10.7167 6.55857 12.9583 6.55857C14.5417 6.55857 16.0833 7.09191 17.325 8.34191L19.4833 10.7169C19.8 11.0669 20.4083 11.0669 20.7167 10.7169L22.6417 8.57524C25.6667 5.55024 30.4083 6.67524 33.25 9.51691C34.6667 10.9336 35.45 12.8169 35.45 14.8169C35.4583 16.8252 34.675 18.7086 33.2583 20.1252Z" stroke="black" stroke-width="2"/>
</svg>
